<svg width="478" height="284" viewBox="0 0 478 284" fill="none" xmlns="http://www.w3.org/2000/svg">
<g clip-path="url(#clip0_45_617)">
<path d="M51.9243 200.281C49.8598 200.503 47.6059 200.836 45.2083 201.326C35.0495 203.395 34.8339 210.289 34.9254 211.869L34.8535 211.823C33.8344 213.462 33.1941 215.12 32.8022 216.68L32.3383 195.548C32.6388 194.922 32.9132 194.21 33.1419 193.485C33.8997 195.829 35.1475 198.035 36.2255 197.892C37.6235 197.703 38.2311 193.59 37.9698 190.672C39.7467 192.956 42.7389 195.405 43.8691 194.647C44.7706 194.047 44.2349 191.566 43.255 189.307C45.3063 190.541 47.5798 191.351 48.2854 190.567C49.2457 189.496 46.9396 185.847 44.8163 183.81C47.6582 184.078 51.2775 183.621 51.5192 182.328C51.7152 181.264 49.5593 179.919 47.2532 179.051C49.5658 178.444 51.7348 177.38 51.6629 176.329C51.578 175.082 48.3638 174.24 45.5872 174.116C47.6778 172.484 49.5985 170.218 49.0105 169.2C48.4683 168.26 45.9596 168.626 43.6404 169.455C45.0123 167.496 45.9792 165.283 45.241 164.526C44.3264 163.586 41.0795 165.211 38.8583 167.007C39.2894 164.206 39.0738 160.674 37.813 160.354C36.7612 160.087 35.2716 162.143 34.2525 164.382C33.8017 162.032 32.8871 159.799 31.8353 159.799C30.3327 159.799 29.1176 164.323 29.1176 167.274C29.1176 167.444 29.1176 167.601 29.1306 167.751C28.9804 167.575 28.804 167.392 28.608 167.202C26.4913 165.146 22.3951 162.868 21.3433 163.945C20.6116 164.702 21.5719 166.909 22.9439 168.874C20.6247 168.045 18.1094 167.679 17.5737 168.619C16.8486 169.879 19.9518 173.032 22.4735 174.56C22.3232 174.54 22.1599 174.527 21.99 174.514C19.0437 174.312 14.4444 175.219 14.3399 176.714C14.268 177.765 16.4305 178.829 18.7497 179.436C16.4435 180.305 14.2942 181.649 14.4836 182.714C14.7188 184.006 18.3381 184.463 21.1865 184.196C19.0633 186.232 16.7571 189.882 17.7175 190.952C18.423 191.736 20.6965 190.926 22.7479 189.692C21.7614 191.951 21.2322 194.432 22.1338 195.032C23.3228 195.829 26.5958 193.054 28.314 190.672C28.1376 193.59 28.8366 197.598 30.2216 197.755C30.8031 197.82 31.4172 197.2 31.9725 196.253L30.4046 218.965C30.0387 221.609 32.3841 223.339 32.5931 224.423L32.9328 239.803C32.5474 238.707 32.0378 237.584 31.3388 236.474L31.2669 236.52C31.3584 234.94 31.1428 228.046 20.984 225.977C18.5864 225.487 16.3325 225.154 14.268 224.932C11.8312 224.671 10.8774 228.007 13.079 229.084C16.2671 230.644 19.2658 232.609 20.8337 234.933C24.8319 240.881 30.3523 237.447 31.1428 236.911C32.0182 238.374 32.5931 239.843 32.959 241.24L33.1419 249.407C33.0961 249.602 33.07 249.707 33.0635 249.713L33.1484 249.74L33.5861 269.507L37.6235 269.475L36.1797 249.269C36.4214 248.179 37.1662 244.465 36.1797 240.613L34.7359 224.736L32.8544 218.495C33.1288 216.563 33.7625 214.395 35.056 212.248C35.84 212.783 41.3669 216.223 45.3651 210.269C46.9265 207.945 49.9317 205.98 53.1198 204.42C55.3214 203.343 54.3741 200.007 51.9308 200.268L51.9243 200.281ZM33.4816 247.05L33.4032 243.59C33.5535 244.896 33.5469 246.077 33.4816 247.05Z" fill="#F2F2F2"/>
<path d="M0 270.46C0 270.891 0.346249 271.237 0.777427 271.237H477.223C477.654 271.237 478 270.891 478 270.46C478 270.03 477.654 269.684 477.223 269.684H0.777427C0.346249 269.684 0 270.03 0 270.46Z" fill="#3F3D56"/>
<path d="M289.138 271.146C308.621 271.146 324.416 255.363 324.416 235.893C324.416 216.424 308.621 200.64 289.138 200.64C269.654 200.64 253.859 216.424 253.859 235.893C253.859 255.363 269.654 271.146 289.138 271.146Z" fill="#3F3D56"/>
<path d="M289.138 259.395C302.127 259.395 312.656 248.873 312.656 235.893C312.656 222.913 302.127 212.391 289.138 212.391C276.149 212.391 265.619 222.913 265.619 235.893C265.619 248.873 276.149 259.395 289.138 259.395Z" fill="white"/>
<path d="M289.138 249.276C296.534 249.276 302.53 243.284 302.53 235.893C302.53 228.502 296.534 222.51 289.138 222.51C281.741 222.51 275.745 228.502 275.745 235.893C275.745 243.284 281.741 249.276 289.138 249.276Z" fill="#3F3D56"/>
<path d="M85.308 271.146C104.792 271.146 120.586 255.363 120.586 235.893C120.586 216.424 104.792 200.64 85.308 200.64C65.8244 200.64 50.0298 216.424 50.0298 235.893C50.0298 255.363 65.8244 271.146 85.308 271.146Z" fill="#3F3D56"/>
<path d="M85.3081 259.395C98.2972 259.395 108.827 248.873 108.827 235.893C108.827 222.913 98.2972 212.391 85.3081 212.391C72.319 212.391 61.7893 222.913 61.7893 235.893C61.7893 248.873 72.319 259.395 85.3081 259.395Z" fill="white"/>
<path d="M337.397 219.128C332.804 207.554 316.746 172.19 288.145 160.485C287.922 160.393 287.694 160.335 287.459 160.302L195.729 147.174C194.22 146.958 192.809 147.99 192.567 149.498L190.96 159.421C190.849 160.1 190.992 160.798 191.365 161.379C196.023 168.599 225.879 217.62 178.07 217.62C130.262 217.62 117.085 183.432 114.994 177.393C114.798 176.825 114.791 176.211 114.968 175.637L129.458 129.776C129.713 128.96 129.576 128.124 129.158 127.458L135.527 115.636L147.195 122.236L153.238 122.307L173.863 133.079L178.064 126.224L135.527 105.021C135.527 105.021 135.599 100.111 121.88 96.1943L100.321 86.4019L97.7076 89.666L104.241 94.8886L104.894 98.8056L109.467 100.111L118.613 117.738L116 122.791L119.175 124.338L118.267 124.129C116.954 123.829 115.615 124.507 115.079 125.741L100.667 158.748C100.445 159.251 100.079 159.682 99.6153 159.982L94.4803 163.292C94.0034 163.599 93.6245 164.049 93.4089 164.578L87.5423 178.79C87.3594 179.234 87.3071 179.698 87.3528 180.148C80.0424 181.532 58.5554 187.512 46.7502 211.099L60.4695 222.197C60.4695 222.197 81.9762 208.291 117.516 222.771C123.696 232.381 132.705 240.352 145.719 241.103C180.023 243.087 236.861 245.046 243.394 237.212C248.176 231.473 251.501 227.896 252.945 226.388C253.454 225.859 254.147 225.552 254.879 225.526L334.875 222.974C336.815 222.915 338.102 220.943 337.39 219.141L337.397 219.128Z" fill="#007B8A"/>
<path d="M116.666 116.425C122.439 116.425 127.119 111.749 127.119 105.98C127.119 100.211 122.439 95.5349 116.666 95.5349C110.894 95.5349 106.214 100.211 106.214 105.98C106.214 111.749 110.894 116.425 116.666 116.425Z" fill="#3F3D56"/>
<path d="M284.062 160.531C283.937 160.531 283.813 160.531 283.689 160.524L196.291 157.142C192.423 156.992 189.111 154.531 187.85 150.875L186.654 147.396C185.681 144.562 186.106 141.52 187.817 139.059C189.536 136.598 192.24 135.149 195.239 135.077L285.538 133.001C288.334 132.936 291.026 134.13 292.848 136.285C294.671 138.439 295.416 141.259 294.887 144.034L293.182 152.964C292.339 157.397 288.53 160.524 284.055 160.524L284.062 160.531Z" fill="#3F3D56"/>
<path d="M85.3079 249.276C92.7045 249.276 98.7006 243.284 98.7006 235.893C98.7006 228.502 92.7045 222.51 85.3079 222.51C77.9114 222.51 71.9153 228.502 71.9153 235.893C71.9153 243.284 77.9114 249.276 85.3079 249.276Z" fill="#3F3D56"/>
<path d="M319.176 197.794C317.086 197.794 315.093 196.678 314.028 194.752L307.41 182.779C306.359 180.879 306.424 178.653 307.574 176.819C308.724 174.978 310.71 173.946 312.866 174.064L324.88 174.677C327.114 174.795 329.126 176.198 330.002 178.261L333.51 186.552C334.15 188.073 334.137 189.732 333.464 191.24C332.791 192.741 331.563 193.871 330.008 194.406L321.11 197.474C320.476 197.696 319.823 197.801 319.183 197.801L319.176 197.794Z" fill="#3F3D56"/>
<path d="M167.251 277.367C167.154 277.367 167.049 277.367 166.951 277.348L164.286 277.054C163.417 276.956 162.659 276.466 162.215 275.709C161.77 274.952 161.712 274.057 162.051 273.248L175.927 240.319C176.306 239.418 177.149 238.778 178.122 238.654C179.07 238.537 179.991 238.909 180.598 239.647C181.199 240.384 181.382 241.364 181.075 242.265L169.871 275.487C169.492 276.61 168.421 277.361 167.258 277.361L167.251 277.367Z" fill="#3F3D56"/>
<path d="M239.291 47.5781C239.291 47.5781 234.215 37.4332 235.227 28.3066L218.333 37.0545L218.986 53.6625L239.291 47.5781Z" fill="#A0616A"/>
<path d="M228.805 41.7417C237.223 41.7417 244.047 34.9228 244.047 26.5113C244.047 18.0997 237.223 11.2808 228.805 11.2808C220.388 11.2808 213.564 18.0997 213.564 26.5113C213.564 34.9228 220.388 41.7417 228.805 41.7417Z" fill="#A0616A"/>
<path d="M244.373 265.655H235.07L230.648 229.809H244.373V265.655Z" fill="#A0616A"/>
<path d="M212.512 265.44C212.225 265.93 212.068 267.503 212.068 268.064C212.068 269.807 213.479 271.218 215.223 271.218H244.021C245.21 271.218 246.177 270.251 246.177 269.063V267.862C246.177 267.862 247.601 264.258 244.667 259.826C244.667 259.826 241.022 263.299 235.573 257.861L233.966 254.956L222.338 263.455L215.89 264.245C214.478 264.422 213.231 264.219 212.505 265.44H212.512Z" fill="#2F2E41"/>
<path d="M216.954 47.5781L239.291 44.5359L256.551 52.6505L257.564 115.544C257.564 115.544 215.112 120.617 208.422 114.023C201.733 107.429 206.809 54.6808 206.809 54.6808L216.961 47.5781H216.954Z" fill="#E6E6E6"/>
<path d="M224.99 30.3891H220.894C220.894 30.3891 217.34 26.0152 217.817 28.6787C218.294 31.3422 216.38 34.2082 216.38 34.2082L213.512 33.255C213.512 33.255 207.776 9.14606 224.99 7.82082C242.205 6.49558 246.033 19.8786 246.033 19.8786C246.033 19.8786 245.079 26.5701 243.165 24.6573C241.251 22.7445 230.733 21.7914 230.733 21.7914L224.997 30.3956L224.99 30.3891Z" fill="#2F2E41"/>
<path d="M214.152 257.6L205.208 260.12L191.201 226.832L204.411 223.104L214.152 257.6Z" fill="#A0616A"/>
<path d="M183.434 266.047C183.29 266.596 183.571 268.149 183.721 268.698C184.191 270.376 185.936 271.348 187.615 270.878L215.328 263.057C216.471 262.737 217.137 261.543 216.817 260.4L216.491 259.245C216.491 259.245 216.883 255.393 212.852 251.92C212.852 251.92 210.291 256.255 203.568 252.495L201.229 250.131L192.351 261.464L186.367 263.978C185.06 264.526 183.799 264.676 183.434 266.047Z" fill="#2F2E41"/>
<path d="M254.513 109.46L257.557 118.665V150.294L248.417 245.764H230.569L228.557 177.615L230.145 143.955L196.101 195.424L211.062 232.185L194.592 243.159C194.592 243.159 169.963 187.075 173.647 181.636C177.332 176.205 210.337 112.051 210.337 112.051C210.337 112.051 254.5 110.478 254.5 109.466L254.513 109.46Z" fill="#2F2E41"/>
<path d="M263.652 72.9404L268.559 80.9702C268.559 80.9702 275.497 108.219 268.559 108.33C261.621 108.441 247.614 94.4446 247.614 94.4446L249.443 87.1394L254.519 89.1697L253.507 72.9404H263.659H263.652Z" fill="#A0616A"/>
<path d="M248.424 52.5265C248.424 52.5265 264.665 49.6671 266.187 60.2886C267.709 70.9102 268.559 80.9768 268.559 80.9768L250.959 82.4326L248.424 52.5265Z" fill="#E6E6E6"/>
<path d="M251.952 93.5554C253.421 91.4938 251.27 87.4436 247.147 84.509C243.023 81.5744 238.49 80.8667 237.02 82.9283C235.551 84.9899 237.702 89.0401 241.825 91.9747C245.949 94.9093 250.482 95.617 251.952 93.5554Z" fill="#A0616A"/>
<path d="M385.761 200.281C383.696 200.503 381.442 200.836 379.045 201.326C368.886 203.395 368.67 210.289 368.762 211.869L368.69 211.823C367.671 213.462 367.03 215.12 366.638 216.68L366.175 195.548C366.475 194.922 366.75 194.21 366.978 193.485C367.736 195.829 368.984 198.035 370.062 197.892C371.46 197.703 372.067 193.59 371.806 190.672C373.583 192.956 376.575 195.405 377.705 194.647C378.607 194.047 378.071 191.566 377.091 189.307C379.143 190.541 381.416 191.351 382.122 190.567C383.082 189.496 380.776 185.847 378.653 183.81C381.494 184.078 385.114 183.621 385.355 182.328C385.551 181.264 383.396 179.919 381.089 179.051C383.402 178.444 385.571 177.38 385.499 176.329C385.414 175.082 382.2 174.24 379.424 174.116C381.514 172.484 383.435 170.218 382.847 169.2C382.305 168.26 379.796 168.626 377.477 169.455C378.849 167.496 379.816 165.283 379.077 164.526C378.163 163.586 374.916 165.211 372.695 167.007C373.126 164.206 372.91 160.674 371.649 160.354C370.597 160.087 369.108 162.143 368.089 164.382C367.638 162.032 366.723 159.799 365.672 159.799C364.169 159.799 362.954 164.323 362.954 167.274C362.954 167.444 362.954 167.601 362.967 167.751C362.817 167.575 362.64 167.392 362.444 167.202C360.328 165.146 356.231 162.868 355.18 163.945C354.448 164.702 355.408 166.909 356.78 168.874C354.461 168.045 351.946 167.679 351.41 168.619C350.685 169.879 353.788 173.032 356.31 174.56C356.16 174.54 355.996 174.527 355.826 174.514C352.88 174.312 348.281 175.219 348.176 176.714C348.104 177.765 350.267 178.829 352.586 179.436C350.28 180.305 348.13 181.649 348.32 182.714C348.555 184.006 352.174 184.463 355.023 184.196C352.9 186.232 350.593 189.882 351.554 190.952C352.259 191.736 354.533 190.926 356.584 189.692C355.598 191.951 355.069 194.432 355.97 195.032C357.159 195.829 360.432 193.054 362.15 190.672C361.974 193.59 362.673 197.598 364.058 197.755C364.639 197.82 365.253 197.2 365.809 196.253L364.241 218.965C363.875 221.609 366.22 223.339 366.429 224.423L366.769 239.803C366.384 238.707 365.874 237.584 365.175 236.474L365.103 236.52C365.195 234.94 364.979 228.046 354.82 225.977C352.423 225.487 350.169 225.154 348.104 224.932C345.668 224.671 344.714 228.007 346.915 229.084C350.103 230.644 353.102 232.609 354.67 234.933C358.668 240.881 364.189 237.447 364.979 236.911C365.854 238.374 366.429 239.843 366.795 241.24L366.978 249.407C366.932 249.602 366.906 249.707 366.9 249.713L366.985 249.74L367.422 269.507L371.46 269.475L370.016 249.269C370.258 248.179 371.002 244.465 370.016 240.613L368.572 224.736L366.691 218.495C366.965 216.563 367.599 214.395 368.892 212.248C369.676 212.783 375.203 216.223 379.201 210.269C380.763 207.945 383.768 205.98 386.956 204.42C389.158 203.343 388.21 200.007 385.767 200.268L385.761 200.281ZM367.318 247.05L367.239 243.59C367.39 244.896 367.383 246.077 367.318 247.05Z" fill="#F2F2F2"/>
<path d="M338.743 267.052L345.766 265.538L343.25 237.767L332.896 239.999L338.743 267.052Z" fill="#A0616A"/>
<path d="M362.758 261.706C363.058 262.026 363.431 263.188 363.522 263.619C363.81 264.931 362.973 266.23 361.654 266.511L339.918 271.204C339.023 271.4 338.135 270.826 337.939 269.931L337.743 269.024C337.743 269.024 336.077 266.537 337.567 262.711C337.567 262.711 340.885 264.741 344.106 259.741L344.844 257.286L355.01 261.804L360.001 261.353C361.092 261.255 362.007 260.896 362.751 261.706H362.758Z" fill="#2F2E41"/>
<path d="M351.299 264.931L357.153 260.779L343.91 236.232L335.267 242.356L351.299 264.931Z" fill="#A0616A"/>
<path d="M371.27 250.568C371.669 250.745 372.473 251.665 372.721 252.024C373.498 253.121 373.243 254.642 372.146 255.419L354.01 268.28C353.259 268.809 352.227 268.632 351.691 267.888L351.155 267.131C351.155 267.131 348.647 265.499 348.51 261.392C348.51 261.392 352.357 261.954 353.357 256.091L353.07 253.545L364.195 253.702L368.612 251.326C369.578 250.803 370.277 250.118 371.277 250.568H371.27Z" fill="#2F2E41"/>
<path d="M266.938 127.608C266.938 127.608 256.022 142.441 277.855 159.12L322.443 144.882L306.515 111.692L292.411 103.963L266.932 127.602L266.938 127.608Z" fill="#2F2E41"/>
<path d="M322.449 144.889L339.736 178.529L350.659 248.551L337.011 249.459L323.357 183.079L299.244 147.161L316.08 139.431" fill="#2F2E41"/>
<path d="M277.862 148.558V159.127L308.802 193.081C308.802 193.081 308.802 218.541 320.633 230.364L334.281 251.28L346.112 244.915L328.825 183.993L297.885 143.981L277.868 148.558H277.862Z" fill="#2F2E41"/>
<path d="M299.845 43.7852L294.018 65.9879L271.799 61.6205C271.799 61.6205 287.302 45.6457 285.12 38.3667L299.852 43.7852H299.845Z" fill="#A0616A"/>
<path d="M282.866 47.1343L296.513 53.4994C296.513 53.4994 303.536 57.7884 303.667 60.6478C303.798 63.5072 302.883 77.1448 302.883 77.1448C302.883 77.1448 308.345 82.6025 304.706 93.5112L306.528 111.699L265.58 133.523L269.218 95.3326L267.396 59.871L282.866 47.1408V47.1343Z" fill="#3F3D56"/>
<path d="M270.616 150.621C272.217 154.283 275.405 156.431 277.737 155.412C280.07 154.394 280.664 150.601 279.07 146.939C278.45 145.463 277.489 144.164 276.261 143.139L269.29 127.7L262.11 131.121L269.741 145.979C269.656 147.572 269.957 149.165 270.616 150.621Z" fill="#A0616A"/>
<path d="M277.862 62.1428C277.862 62.1428 267.853 55.7777 264.214 63.0502C260.575 70.3227 252.383 107.606 252.383 107.606L264.214 143.067L275.131 138.524L265.573 100.359L277.855 62.1428H277.862Z" fill="#3F3D56"/>
<path d="M329.165 144.895C332 147.716 335.757 148.538 337.554 146.73C339.35 144.921 338.501 141.181 335.665 138.36C334.548 137.218 333.17 136.363 331.654 135.86L319.483 124.07L314.067 129.893L326.637 140.893C327.146 142.408 328.015 143.779 329.165 144.889V144.895Z" fill="#A0616A"/>
<path d="M303.281 59.9688C303.281 59.9688 285.832 59.2572 285.126 67.3588C284.427 75.4604 296.356 111.614 296.356 111.614L320.431 140.228L328.904 131.982L305.953 100.02L303.288 59.9688H303.281Z" fill="#3F3D56"/>
<path d="M252.187 125.617L237.612 81.4011C225.826 71.0277 213.041 96.0114 178.723 81.845L189.516 131.858C215.465 117.842 237.795 112.352 252.187 125.617Z" fill="white"/>
<path d="M189.516 133.164C189.424 133.164 189.326 133.144 189.241 133.105C189.052 133.02 188.921 132.851 188.876 132.648L178.083 82.635C178.031 82.4 178.116 82.152 178.305 81.9953C178.495 81.8386 178.749 81.7994 178.972 81.8908C198.466 89.9337 211.049 85.1484 220.24 81.6493C227.224 78.9923 232.738 76.8902 238.043 81.5579C238.128 81.6362 238.193 81.7341 238.232 81.8451L252.807 126.061C252.899 126.342 252.788 126.655 252.54 126.812C252.291 126.975 251.958 126.943 251.743 126.74C239.095 115.081 219.417 117.091 189.829 133.079C189.731 133.131 189.627 133.157 189.516 133.157V133.164ZM179.618 83.5621L189.967 131.525C218.359 116.334 237.808 113.99 250.828 124.259L237.037 82.4327C232.366 78.4374 227.459 80.3044 220.698 82.8766C211.486 86.3823 198.936 91.161 179.618 83.5686V83.5621Z" fill="#3F3D56"/>
<path d="M201.327 60.3345L192.103 62.2407C192.103 62.2407 167.447 75.8 172.112 80.9377C176.77 86.0755 196.571 86.7349 196.571 86.7349L200.661 80.409L195.709 78.0914L208.266 67.7441L201.327 60.3345Z" fill="#A0616A"/>
<path d="M226.649 57.4946C226.649 57.4946 217.64 43.6872 208.84 49.8369C200.04 55.9865 192.109 62.2406 192.109 62.2406L203.072 76.0741L226.656 57.4946H226.649Z" fill="#E6E6E6"/>
<path d="M212.222 86.5912C212.724 84.1104 209.109 81.286 204.147 80.2827C199.186 79.2794 194.756 80.4771 194.254 82.9579C193.752 85.4386 197.367 88.263 202.328 89.2664C207.29 90.2697 211.719 89.0719 212.222 86.5912Z" fill="#A0616A"/>
<path d="M382.592 275.455C385.637 275.455 388.106 272.988 388.106 269.945C388.106 266.902 385.637 264.435 382.592 264.435C379.547 264.435 377.078 266.902 377.078 269.945C377.078 272.988 379.547 275.455 382.592 275.455Z" fill="#3F3D56"/>
<path d="M389.942 284C392.987 284 395.456 281.533 395.456 278.49C395.456 275.447 392.987 272.98 389.942 272.98C386.896 272.98 384.428 275.447 384.428 278.49C384.428 281.533 386.896 284 389.942 284Z" fill="#3F3D56"/>
<path d="M445.067 284C448.112 284 450.581 281.533 450.581 278.49C450.581 275.447 448.112 272.98 445.067 272.98C442.022 272.98 439.553 275.447 439.553 278.49C439.553 281.533 442.022 284 445.067 284Z" fill="#3F3D56"/>
<path d="M398.017 196.038V136.206C398.017 129.508 403.622 127.85 410.325 127.85C413.611 127.85 415.205 127.471 417.511 129.808C419.817 132.145 422.378 133.118 422.326 136.402L421.359 195.111L398.01 196.031L398.017 196.038ZM410.978 131.773C404.994 131.773 399.323 130.233 399.323 136.213V194.686L420.079 193.864L421.026 136.389C421.072 133.458 416.302 133.862 414.251 131.773C412.193 129.684 413.918 131.773 410.985 131.773H410.978Z" fill="#3F3D56"/>
<path d="M381.606 195.313L380.769 260.681C380.756 261.523 380.959 262.352 381.351 263.097L387.531 274.763C388.439 276.48 390.255 277.518 392.196 277.433L446.459 275.043C449.235 274.919 451.385 272.569 451.26 269.795L447.857 195.157C447.733 192.474 445.524 190.358 442.833 190.358H386.629C383.879 190.358 381.638 192.571 381.599 195.32L381.606 195.313Z" fill="#E6E6E6"/>
<path d="M402.995 224.815L401.688 224.749L402.171 215.074C402.433 209.865 406.725 205.687 411.945 205.563L435.052 205.027C439.717 204.949 443.584 208.481 443.839 213.142L444.329 221.988L443.022 222.06L442.532 213.214C442.31 209.264 439.011 206.235 435.078 206.333L411.971 206.868C407.43 206.973 403.7 210.609 403.472 215.14L402.988 224.815H402.995Z" fill="#3F3D56"/>
<path d="M402.073 271.674L400.773 271.544L403.589 244.086C404.112 239.007 408.352 235.005 413.454 234.777L435.993 233.765C438.835 233.634 441.533 234.64 443.597 236.591C445.662 238.543 446.811 241.181 446.844 244.021L447.099 267.927L445.792 267.94L445.538 244.034C445.511 241.553 444.505 239.248 442.702 237.538C440.899 235.828 438.528 234.953 436.058 235.064L413.519 236.076C409.057 236.278 405.353 239.771 404.896 244.21L402.08 271.668L402.073 271.674Z" fill="#3F3D56"/>
<path d="M391.973 269.775L390.667 269.755L391.49 207.005C391.549 202.716 394.953 199.256 399.245 199.126L443.669 197.82L443.708 199.126L399.284 200.431C395.691 200.536 392.842 203.428 392.797 207.018L391.973 269.768V269.775Z" fill="#3F3D56"/>
<path d="M392.091 260.838H391.183V203.689C391.183 201.881 389.713 200.405 387.897 200.405H382.821V199.1H387.897C390.295 199.1 392.268 200.947 392.47 203.284C392.483 203.415 392.49 203.552 392.49 203.689V230.749L392.091 260.838Z" fill="#3F3D56"/>
<path d="M309.331 31.9166C309.331 40.2858 302.543 47.0687 294.168 47.0687C285.793 47.0687 279.005 40.2858 279.005 31.9166C279.005 23.5473 285.793 16.7644 294.168 16.7644C302.543 16.7644 309.331 23.5473 309.331 31.9166Z" fill="#A0616A"/>
<path d="M292.959 11.5484C293.397 11.803 293.985 11.4179 294.129 10.9282C294.272 10.4386 294.103 9.92288 293.946 9.43979C293.671 8.63028 293.404 7.8273 293.129 7.01779C292.548 5.30085 291.934 3.52516 290.679 2.2195C288.785 0.247961 285.766 -0.254717 283.055 0.110867C279.573 0.580904 276.137 2.46105 274.517 5.58157C272.896 8.70209 273.589 13.0499 276.516 14.9954C272.341 19.7741 270.891 25.1011 271.119 31.4336C271.348 37.7725 278.26 43.6023 282.768 48.0676C283.774 47.4605 284.689 44.6011 284.133 43.5631C283.578 42.5251 284.375 41.3239 283.689 40.3643C283.003 39.4111 282.428 40.9322 283.121 39.9791C283.558 39.3785 281.853 38.001 282.5 37.642C285.642 35.9055 286.688 31.9885 288.661 28.992C291.045 25.3753 295.115 22.9272 299.433 22.5225C301.812 22.3005 304.32 22.7053 306.267 24.0827C308.214 25.4602 309.475 27.9214 309.024 30.265C310.193 29.0769 310.775 27.3403 310.559 25.6887C310.337 24.037 309.324 22.5094 307.881 21.6673C308.756 18.7752 308.005 15.4458 305.973 13.2131C303.941 10.9739 295.703 11.3591 292.737 11.9466L292.966 11.555L292.959 11.5484Z" fill="#2F2E41"/>
<path d="M292.502 22.6074C288.576 23.0318 285.74 26.433 283.343 29.5731C281.964 31.3814 280.514 33.3791 280.553 35.6575C280.586 37.9554 282.128 39.9335 282.866 42.1074C284.068 45.6719 282.898 49.9087 280.037 52.3503C282.866 52.8856 285.923 50.7704 286.407 47.9306C286.975 44.6339 284.473 41.4481 284.767 38.1121C285.028 35.1744 287.347 32.9156 289.314 30.7156C291.287 28.5155 293.136 25.6039 292.228 22.7967L292.502 22.6074Z" fill="#2F2E41"/>
</g>
<defs>
<clipPath id="clip0_45_617">
<rect width="478" height="284" fill="white"/>
</clipPath>
</defs>
</svg>
