<svg width="331" height="219" viewBox="0 0 331 219" fill="none" xmlns="http://www.w3.org/2000/svg">
<g clip-path="url(#clip0_45_709)">
<path d="M95.6489 105.952C124.381 105.952 147.673 82.6013 147.673 53.7968C147.673 24.9924 124.381 1.64185 95.6489 1.64185C66.917 1.64185 43.6251 24.9924 43.6251 53.7968C43.6251 82.6013 66.917 105.952 95.6489 105.952Z" fill="#007B8A"/>
<path d="M224.429 15.8502C224.079 14.4717 222.939 13.4404 221.751 12.6632C220.563 11.886 219.255 11.2614 218.24 10.2671C217.225 9.27281 216.543 7.76087 217.014 6.41905C217.586 4.78824 219.494 4.13656 221.162 3.69689C205.896 2.05164 190.556 1.1937 175.202 1.12645C174.856 0.656252 174.371 0.307673 173.816 0.130504C173.26 -0.0466658 172.663 -0.0433672 172.11 0.139933C171.557 0.323232 171.075 0.677158 170.734 1.15115C170.394 1.62514 170.211 2.19495 170.213 2.7792V52.2487H175.757V21.8605C188.926 21.8925 202.096 21.9244 215.265 21.9564C217.397 21.9616 219.616 21.948 221.533 21.0118C223.45 20.0756 224.956 17.9217 224.429 15.8502Z" fill="#CCCCCC"/>
<path d="M255.042 104.498V87.8224H267.794C270.051 87.8225 272.286 87.3768 274.371 86.5108C276.457 85.6449 278.351 84.3757 279.947 82.7757C281.543 81.1756 282.809 79.2761 283.673 77.1855C284.537 75.095 284.982 72.8543 284.982 70.5915L187.955 70.5915C187.955 68.5276 188.773 66.5483 190.228 65.089C191.684 63.6296 193.658 62.8098 195.717 62.8098H263.358V60.8753C263.358 54.2691 258.797 48.9138 253.17 48.9138H168.868C155.884 48.9138 144.022 57.2979 137.903 70.5915H124.327C123.175 70.5914 122.068 71.0408 121.241 71.8444L112.656 80.1819C112.022 80.7981 111.585 81.59 111.403 82.4564C111.22 83.3227 111.3 84.224 111.631 85.0448C111.963 85.8655 112.531 86.5684 113.263 87.0632C113.996 87.5581 114.859 87.8225 115.742 87.8224H126.412V104.498H77.3956C76.7692 104.498 76.1499 104.631 75.5785 104.888C75.0071 105.145 74.4965 105.521 74.0804 105.99L64.2236 117.107C63.6556 117.747 63.2843 118.539 63.1546 119.386C63.0249 120.234 63.1423 121.101 63.4926 121.883C63.8429 122.665 64.4112 123.328 65.1291 123.794C65.847 124.26 66.6838 124.508 67.5389 124.508H98.023C98.775 124.508 99.5147 124.699 100.173 125.065C100.83 125.43 101.385 125.957 101.783 126.596L107.133 135.171C107.537 135.819 107.768 136.562 107.803 137.325C107.838 138.089 107.676 138.85 107.332 139.532C106.988 140.215 106.475 140.797 105.841 141.223C105.208 141.649 104.475 141.904 103.714 141.963L37.5968 147.09C36.7918 147.153 36.0192 147.434 35.362 147.904C34.7049 148.375 34.1883 149.016 33.8679 149.759L19.8669 182.217C19.5751 182.894 19.4556 183.633 19.5192 184.367C19.5828 185.101 19.8274 185.808 20.2311 186.424C20.6349 187.04 21.185 187.546 21.8321 187.896C22.4791 188.246 23.2028 188.429 23.938 188.429H244.857C250.269 188.431 255.669 187.937 260.991 186.954C300.433 179.658 328.782 144.706 328.782 104.498L255.042 104.498ZM143.045 87.8224H238.409V104.498H143.045V87.8224ZM281.655 123.396C281.655 125.732 281.196 128.045 280.304 130.203C279.413 132.361 278.106 134.322 276.458 135.973C274.811 137.625 272.855 138.935 270.702 139.829C268.55 140.723 266.243 141.183 263.913 141.183H120.868C120.868 136.465 122.737 131.941 126.064 128.606C129.391 125.27 133.904 123.396 138.61 123.396L281.655 123.396Z" fill="#3F3D56"/>
<path d="M258.369 132.289H139.719C138.984 132.29 138.279 132.583 137.759 133.104C137.24 133.625 136.947 134.332 136.946 135.068V141.739H261.141V135.068C261.14 134.332 260.848 133.625 260.328 133.104C259.808 132.583 259.104 132.29 258.369 132.289ZM163.005 133.401H176.089V140.627H163.005V133.401ZM161.896 140.627H148.812V133.401H161.896V140.627ZM177.198 133.401H190.282V140.627H177.198V133.401ZM191.391 133.401H204.474V140.627H191.391V133.401ZM205.583 133.401H218.667V140.627H205.583V133.401ZM219.776 133.401H232.86V140.627H219.776V133.401ZM233.969 133.401H247.053V140.627H233.969V133.401ZM138.055 135.068C138.056 134.626 138.231 134.203 138.543 133.89C138.855 133.577 139.278 133.401 139.719 133.401H147.703V140.627H138.055V135.068ZM260.032 140.627H248.162V133.401H258.369C258.81 133.401 259.232 133.577 259.544 133.89C259.856 134.203 260.031 134.626 260.032 135.068V140.627Z" fill="#3F3D56"/>
<path d="M250.606 53.9163H243.399V83.9315H250.606V53.9163Z" fill="#3F3D56"/>
<path d="M118.095 190.096H1.66331C1.22217 190.096 0.799103 189.921 0.48717 189.608C0.175238 189.295 0 188.871 0 188.429C0 187.987 0.175238 187.563 0.48717 187.25C0.799103 186.937 1.22217 186.761 1.66331 186.761H118.095C118.537 186.761 118.96 186.937 119.272 187.25C119.584 187.563 119.759 187.987 119.759 188.429C119.759 188.871 119.584 189.295 119.272 189.608C118.96 189.921 118.537 190.096 118.095 190.096Z" fill="#CCCCCC"/>
<path d="M66.5327 200.102H18.2965C17.8554 200.102 17.4323 199.926 17.1204 199.613C16.8084 199.301 16.6332 198.876 16.6332 198.434C16.6332 197.992 16.8084 197.568 17.1204 197.255C17.4323 196.942 17.8554 196.767 18.2965 196.767H66.5327C66.9738 196.767 67.3969 196.942 67.7088 197.255C68.0208 197.568 68.196 197.992 68.196 198.434C68.196 198.876 68.0208 199.301 67.7088 199.613C67.3969 199.926 66.9738 200.102 66.5327 200.102Z" fill="#CCCCCC"/>
<path d="M279.437 190.096H163.005C162.564 190.096 162.141 189.921 161.829 189.608C161.517 189.295 161.342 188.871 161.342 188.429C161.342 187.987 161.517 187.563 161.829 187.25C162.141 186.937 162.564 186.761 163.005 186.761H279.437C279.878 186.761 280.301 186.937 280.613 187.25C280.925 187.563 281.1 187.987 281.1 188.429C281.1 188.871 280.925 189.295 280.613 189.608C280.301 189.921 279.878 190.096 279.437 190.096Z" fill="#CCCCCC"/>
<path d="M207.915 200.102H91.4824C91.0413 200.102 90.6182 199.926 90.3063 199.613C89.9943 199.301 89.8191 198.876 89.8191 198.434C89.8191 197.992 89.9943 197.568 90.3063 197.255C90.6182 196.942 91.0413 196.767 91.4824 196.767H207.915C208.356 196.767 208.779 196.942 209.091 197.255C209.403 197.568 209.578 197.992 209.578 198.434C209.578 198.876 209.403 199.301 209.091 199.613C208.779 199.926 208.356 200.102 207.915 200.102Z" fill="#CCCCCC"/>
<path d="M118.096 208.995H1.66338C1.22269 208.994 0.800299 208.818 0.488935 208.506C0.177571 208.193 0.00268555 207.769 0.00268555 207.327C0.00268555 206.886 0.177571 206.462 0.488935 206.149C0.800299 205.837 1.22269 205.661 1.66338 205.66H118.096C118.536 205.661 118.959 205.837 119.27 206.149C119.581 206.462 119.756 206.886 119.756 207.327C119.756 207.769 119.581 208.193 119.27 208.506C118.959 208.818 118.536 208.994 118.096 208.995Z" fill="#CCCCCC"/>
<path d="M187.955 219H139.719C139.277 219 138.854 218.824 138.542 218.512C138.231 218.199 138.055 217.775 138.055 217.333C138.055 216.89 138.231 216.466 138.542 216.153C138.854 215.841 139.277 215.665 139.719 215.665H187.955C188.396 215.665 188.819 215.841 189.131 216.153C189.443 216.466 189.618 216.89 189.618 217.333C189.618 217.775 189.443 218.199 189.131 218.512C188.819 218.824 188.396 219 187.955 219Z" fill="#CCCCCC"/>
<path d="M83.7203 219H35.4841C35.043 219 34.6199 218.824 34.308 218.512C33.996 218.199 33.8208 217.775 33.8208 217.333C33.8208 216.89 33.996 216.466 34.308 216.153C34.6199 215.841 35.043 215.665 35.4841 215.665H83.7203C84.1614 215.665 84.5845 215.841 84.8964 216.153C85.2084 216.466 85.3836 216.89 85.3836 217.333C85.3836 217.775 85.2084 218.199 84.8964 218.512C84.5845 218.824 84.1614 219 83.7203 219Z" fill="#CCCCCC"/>
<path d="M279.437 208.995H163.005C162.564 208.995 162.141 208.819 161.829 208.507C161.517 208.194 161.342 207.77 161.342 207.327C161.342 206.885 161.517 206.461 161.829 206.148C162.141 205.836 162.564 205.66 163.005 205.66H279.437C279.878 205.661 280.3 205.837 280.612 206.149C280.923 206.462 281.098 206.886 281.098 207.327C281.098 207.769 280.923 208.193 280.612 208.506C280.3 208.818 279.878 208.994 279.437 208.995Z" fill="#CCCCCC"/>
<path d="M329.337 219H212.905C212.463 219 212.04 218.824 211.728 218.512C211.416 218.199 211.241 217.775 211.241 217.333C211.241 216.89 211.416 216.466 211.728 216.153C212.04 215.841 212.463 215.665 212.905 215.665H329.337C329.778 215.665 330.201 215.841 330.513 216.153C330.825 216.466 331 216.89 331 217.333C331 217.775 330.825 218.199 330.513 218.512C330.201 218.824 329.778 219 329.337 219Z" fill="#CCCCCC"/>
</g>
<defs>
<clipPath id="clip0_45_709">
<rect width="331" height="219" fill="white"/>
</clipPath>
</defs>
</svg>
