<svg width="411" height="285" viewBox="0 0 411 285" fill="none" xmlns="http://www.w3.org/2000/svg">
<g clip-path="url(#clip0_45_501)">
<path d="M193.849 267.644C267.657 267.644 327.491 207.73 327.491 133.822C327.491 59.9142 267.657 0 193.849 0C120.041 0 60.2073 59.9142 60.2073 133.822C60.2073 207.73 120.041 267.644 193.849 267.644Z" fill="#E6E6E6"/>
<path d="M316.46 42.646C316.134 43.3984 315.792 44.1428 315.436 44.8789C286.346 46.0487 240.345 47.4427 209.093 46.0682C208.904 45.6989 208.719 45.3276 208.537 44.9542C206.574 40.9163 209.789 36.2683 214.246 36.7659L214.35 36.7776C214.35 36.7776 220.192 19.2297 235.769 24.1041C235.769 24.1041 270.817 -30.8499 304.892 27.3408C304.892 27.3408 305.085 27.3058 305.445 27.274C313.697 26.5423 319.763 35.0377 316.46 42.646Z" fill="white"/>
<path d="M338.666 125.829H321.333V276.094H338.666V125.829Z" fill="#2F2E43"/>
<path d="M383.364 278.781C382.287 272.623 380.962 266.44 378.309 260.78C375.656 255.12 371.552 249.966 366.024 247.06C357.355 242.503 345.726 244.565 339.148 251.827C332.569 259.089 331.649 270.879 337.021 279.076" fill="#E6E6E6"/>
<path d="M338.78 279.526C337.883 268.212 331.727 257.242 322.059 251.317C312.391 245.392 299.354 245.03 289.793 251.127C280.232 257.224 275.025 269.789 278.229 280.677" fill="#E6E6E6"/>
<path d="M411 279.248C409.032 271.726 402.434 265.63 394.787 264.271C391.04 263.605 386.776 264.172 384.168 266.948C380.971 270.352 381.32 275.661 381.873 280.302" fill="#E6E6E6"/>
<path d="M193.849 173.558C226.345 173.558 252.688 147.179 252.688 114.639C252.688 82.0998 226.345 55.7212 193.849 55.7212C161.353 55.7212 135.01 82.0998 135.01 114.639C135.01 147.179 161.353 173.558 193.849 173.558Z" fill="#FF6363"/>
<path d="M410.92 279.4C410.92 281.923 231.877 285 149.378 285C66.8787 285 0 282.955 0 280.433C0 277.91 66.8787 275.865 149.378 275.865C231.877 275.865 410.92 276.878 410.92 279.4Z" fill="#E6E6E6"/>
<path d="M31.6904 232.696L35.577 248.005L73.7463 254.628V225.441L31.6904 223.57V232.696Z" fill="#2F2E43"/>
<path d="M265.459 216.034H70.6979V261.707H265.459V216.034Z" fill="#2F2E43"/>
<path d="M80.2763 255.769C80.2763 268.634 75.3351 279.063 58.6109 279.063C44.1672 279.063 39.226 268.634 39.226 255.769C39.226 242.905 46.6453 232.476 58.6109 232.476C70.5764 232.476 80.2763 242.905 80.2763 255.769Z" fill="#2F2E43"/>
<path d="M52.9094 272.668C57.9475 272.668 62.0317 264.591 62.0317 254.627C62.0317 244.664 57.9475 236.586 52.9094 236.586C47.8713 236.586 43.7871 244.664 43.7871 254.627C43.7871 264.591 47.8713 272.668 52.9094 272.668Z" fill="white"/>
<path d="M52.9094 259.423C56.4361 259.423 59.295 256.56 59.295 253.029C59.295 249.497 56.4361 246.635 52.9094 246.635C49.3827 246.635 46.5238 249.497 46.5238 253.029C46.5238 256.56 49.3827 259.423 52.9094 259.423Z" fill="#2F2E43"/>
<path d="M262.722 280.433C277.081 280.433 288.721 267.346 288.721 251.202C288.721 235.058 277.081 221.971 262.722 221.971C248.364 221.971 236.724 235.058 236.724 251.202C236.724 267.346 248.364 280.433 262.722 280.433Z" fill="#2F2E43"/>
<path d="M139.571 275.865C150.655 275.865 159.64 266.05 159.64 253.942C159.64 241.835 150.655 232.019 139.571 232.019C128.487 232.019 119.502 241.835 119.502 253.942C119.502 266.05 128.487 275.865 139.571 275.865Z" fill="#2F2E43"/>
<path d="M176.061 285C190.419 285 202.059 271.913 202.059 255.769C202.059 239.626 190.419 226.539 176.061 226.539C161.702 226.539 150.062 239.626 150.062 255.769C150.062 271.913 161.702 285 176.061 285Z" fill="#2F2E43"/>
<path d="M171.271 275.409C180.214 275.409 187.463 265.798 187.463 253.942C187.463 242.087 180.214 232.476 171.271 232.476C162.329 232.476 155.079 242.087 155.079 253.942C155.079 265.798 162.329 275.409 171.271 275.409Z" fill="white"/>
<path d="M171.043 259.88C175.829 259.88 179.709 255.994 179.709 251.202C179.709 246.409 175.829 242.524 171.043 242.524C166.257 242.524 162.377 246.409 162.377 251.202C162.377 255.994 166.257 259.88 171.043 259.88Z" fill="#2F2E43"/>
<path d="M22.1216 241.075V206.317C22.1216 203.266 24.592 200.792 27.6395 200.792H35.0044C35.0044 200.792 41.0504 164.423 52.4533 159.399C63.8561 154.375 166.026 131.539 222.128 153.918L240.829 188.173C240.829 188.173 283.248 188.173 287.809 197.765C287.809 197.765 307.878 192.74 309.702 214.664L304.685 240.24L302.861 249.375L203.884 246.178L185.639 243.894C185.639 243.894 182.902 222.885 169.675 222.885C156.448 222.885 150.974 226.082 150.974 226.082C150.974 226.082 140.94 242.524 144.132 258.966H69.8123C69.8123 258.966 66.5928 233.39 51.541 232.933C44.6873 232.725 37.8576 230.192 35.577 248.005L27.4082 247.034C24.3928 246.676 22.1216 244.116 22.1216 241.075Z" fill="#007B8A"/>
<path d="M237.339 187.488H148.102C145.161 187.488 142.685 185.378 142.216 182.471L138.856 161.674C138.615 160.18 138.992 158.699 139.918 157.505C140.843 156.311 142.181 155.58 143.684 155.444C192.183 151.062 211.974 154.235 218.233 155.802C222.075 156.765 225.306 159.517 226.875 163.166L237.339 187.488Z" fill="white"/>
<path d="M108.466 191.665C107.75 191.665 107.05 191.65 106.367 191.619C105.219 191.566 104.147 191.024 103.427 190.132C102.71 189.245 102.406 188.091 102.592 186.965L106.208 165.107C106.495 163.373 107.911 162.009 109.652 161.79L127.022 159.601C129.074 159.341 130.968 160.673 131.421 162.697L136.093 183.567C136.327 184.612 136.14 185.685 135.567 186.589C134.995 187.491 134.107 188.116 133.065 188.348C127.308 189.631 116.857 191.665 108.466 191.665Z" fill="white"/>
<path d="M58.4132 195.837C57.3281 195.837 56.2983 195.342 55.6199 194.483C54.8906 193.559 54.6643 192.337 55.0144 191.212C57.8123 182.229 62.9657 166.955 66.0442 165.585C69.1101 164.22 84.9149 163.005 94.0633 162.402C95.1563 162.332 96.2044 162.756 96.938 163.571C97.6728 164.386 97.9883 165.475 97.8042 166.559L93.7118 190.649C93.4354 192.276 92.0938 193.493 90.4493 193.608L58.6622 195.828C58.5791 195.834 58.4958 195.837 58.4132 195.837Z" fill="white"/>
<path d="M89.8547 251.202V205.913L96.6296 195.938H139.665L133.642 207.813L135.031 251.202H89.8547Z" stroke="#2F2E43" stroke-miterlimit="10" stroke-linecap="round"/>
<path d="M76.0532 251.202H89.8547" stroke="#2F2E43" stroke-miterlimit="10" stroke-linecap="round"/>
<path d="M46.64 232.696C46.64 232.696 49.2604 201.876 53.8216 200.277L92.1353 197.308" stroke="#2F2E43" stroke-miterlimit="10" stroke-linecap="round"/>
<path d="M56.1022 211.01H62.2011" stroke="#2F2E43" stroke-miterlimit="10" stroke-linecap="round"/>
<path d="M102.17 205.581H94.3123V209.183H102.17V205.581Z" stroke="#2F2E43" stroke-miterlimit="10" stroke-linecap="round"/>
<path d="M139.665 195.938L220.076 192.969C220.076 192.969 229.838 198.213 232.026 215.002L286.212 217.175C286.212 217.175 291.23 204.844 287.809 197.764" stroke="#2F2E43" stroke-miterlimit="10" stroke-linecap="round"/>
<path d="M216.199 226.538C221.992 226.538 226.689 221.835 226.689 216.034C226.689 210.232 221.992 205.529 216.199 205.529C210.405 205.529 205.708 210.232 205.708 216.034C205.708 221.835 210.405 226.538 216.199 226.538Z" fill="#2F2E43"/>
<path d="M216.199 223.798C220.481 223.798 223.953 220.322 223.953 216.034C223.953 211.746 220.481 208.269 216.199 208.269C211.916 208.269 208.445 211.746 208.445 216.034C208.445 220.322 211.916 223.798 216.199 223.798Z" fill="white"/>
<path d="M302.633 228.137C307.167 228.137 310.843 223.638 310.843 218.089C310.843 212.539 307.167 208.041 302.633 208.041C298.098 208.041 294.422 212.539 294.422 218.089C294.422 223.638 298.098 228.137 302.633 228.137Z" fill="#2F2E43"/>
<path d="M301.948 226.538C304.971 226.538 307.422 222.858 307.422 218.317C307.422 213.777 304.971 210.096 301.948 210.096C298.925 210.096 296.475 213.777 296.475 218.317C296.475 222.858 298.925 226.538 301.948 226.538Z" fill="white"/>
<path d="M214.602 235.901C216.114 235.901 217.339 234.163 217.339 232.019C217.339 229.875 216.114 228.137 214.602 228.137C213.091 228.137 211.866 229.875 211.866 232.019C211.866 234.163 213.091 235.901 214.602 235.901Z" fill="white"/>
<path d="M301.036 239.327C302.296 239.327 303.317 237.691 303.317 235.673C303.317 233.655 302.296 232.019 301.036 232.019C299.777 232.019 298.756 233.655 298.756 235.673C298.756 237.691 299.777 239.327 301.036 239.327Z" fill="white"/>
<path d="M292.826 236.13H226.689L228.058 226.798C228.058 221.862 232.053 217.861 236.983 217.861H283.536C288.667 217.861 292.826 222.026 292.826 227.164V236.13Z" fill="#2F2E43"/>
<path d="M323.821 144.258C323.821 144.258 298.984 140.883 307.422 110.292H310.843C310.843 110.292 306.738 125.829 322.702 133.594L323.821 144.258Z" fill="#2F2E43"/>
<path d="M337.297 154.603C337.297 154.603 353.261 132.68 353.261 124.002H348.852C348.852 124.002 344.532 137.248 334.757 139.303L337.297 154.603Z" fill="#2F2E43"/>
<path d="M295.817 122.295C294.959 128.983 288.027 133.915 281.301 133.578C274.575 133.242 268.578 128.429 265.654 122.354C262.731 116.279 262.554 109.166 263.903 102.559C257.136 93.4381 253.214 82.2312 252.816 70.8756C252.597 64.6474 253.564 58.0287 257.496 53.1981C260.648 49.3259 265.588 46.977 270.577 46.9783C275.566 46.9795 280.504 49.3308 283.654 53.2046L282.799 53.1022C282.026 46.852 281.251 40.539 281.879 34.2724C282.507 28.0059 284.669 21.6993 289.047 17.1783C293.555 12.5244 299.916 10.2013 306.166 8.5076C315.248 6.04625 324.887 4.60825 334.044 6.77146C343.202 8.93467 351.801 15.2903 354.545 24.3023C361.769 24.0398 369.261 24.8456 375.562 28.3942C381.862 31.9427 386.728 38.6876 386.442 45.9203C386.157 53.1531 379.566 60.0194 372.386 59.1817C377.048 62.1704 381.626 65.4775 384.974 69.8912C388.323 74.3049 390.33 80.0067 389.266 85.4463C388.202 90.8858 383.554 95.7456 378.024 95.9829L376.813 96.6042C383.469 102.833 383.234 114.265 377.797 121.585C372.36 128.905 363.002 132.465 353.906 132.976C344.81 133.487 335.797 131.341 326.938 129.211C316.579 126.719 306.22 124.228 295.861 121.736L295.817 122.295Z" fill="#007B8A"/>
<path d="M160.5 44.3114C160.347 44.664 160.187 45.0127 160.02 45.3576C146.391 45.9056 124.84 46.5587 110.199 45.9148C110.11 45.7418 110.023 45.5678 109.938 45.3928C109.019 43.5011 110.525 41.3235 112.613 41.5566L112.662 41.5621C112.662 41.5621 115.398 33.341 122.696 35.6246C122.696 35.6246 139.116 9.87875 155.081 37.141C155.081 37.141 155.171 37.1246 155.339 37.1097C159.206 36.7669 162.047 40.747 160.5 44.3114Z" fill="white"/>
<path d="M148.154 114.353C147.827 115.105 147.486 115.85 147.129 116.586C118.039 117.755 72.038 119.149 40.7864 117.775C40.5975 117.406 40.4122 117.034 40.2307 116.661C38.2677 112.623 41.4824 107.975 45.9396 108.473L46.0438 108.484C46.0438 108.484 51.8852 90.9365 67.4623 95.8109C67.4623 95.8109 102.511 40.8569 136.586 99.0475C136.586 99.0475 136.779 99.0126 137.138 98.9807C145.391 98.2491 151.456 106.744 148.154 114.353Z" fill="white"/>
</g>
<defs>
<clipPath id="clip0_45_501">
<rect width="411" height="285" fill="white"/>
</clipPath>
</defs>
</svg>
