<svg width="47" height="47" viewBox="0 0 47 47" fill="none" xmlns="http://www.w3.org/2000/svg">
<circle cx="23.5" cy="23.5" r="23.5" fill="white"/>
<path d="M35.5233 21.5874H34.4166L31.5699 15.1829C31.4411 14.8932 31.231 14.647 30.9651 14.4742C30.6992 14.3014 30.3889 14.2095 30.0718 14.2095H18.0212C17.7041 14.2095 17.3938 14.3014 17.1279 14.4742C16.862 14.647 16.6519 14.8932 16.5231 15.1829L13.6765 21.5874H12.5698C12.3524 21.5874 12.1438 21.6737 11.9901 21.8275C11.8364 21.9812 11.75 22.1897 11.75 22.4071C11.75 22.6246 11.8364 22.8331 11.9901 22.9868C12.1438 23.1405 12.3524 23.2269 12.5698 23.2269H13.3895V31.4246C13.3895 31.8594 13.5623 32.2764 13.8697 32.5839C14.1772 32.8914 14.5942 33.0641 15.0291 33.0641H17.4884C17.9232 33.0641 18.3402 32.8914 18.6477 32.5839C18.9552 32.2764 19.1279 31.8594 19.1279 31.4246V30.6048H28.9651V31.4246C28.9651 31.8594 29.1379 32.2764 29.4453 32.5839C29.7528 32.8914 30.1698 33.0641 30.6047 33.0641H33.064C33.4988 33.0641 33.9158 32.8914 34.2233 32.5839C34.5308 32.2764 34.7035 31.8594 34.7035 31.4246V23.2269H35.5233C35.7407 23.2269 35.9492 23.1405 36.1029 22.9868C36.2567 22.8331 36.343 22.6246 36.343 22.4071C36.343 22.1897 36.2567 21.9812 36.1029 21.8275C35.9492 21.6737 35.7407 21.5874 35.5233 21.5874ZM19.1279 26.506H16.6686C16.4512 26.506 16.2427 26.4196 16.0889 26.2659C15.9352 26.1121 15.8488 25.9036 15.8488 25.6862C15.8488 25.4688 15.9352 25.2603 16.0889 25.1066C16.2427 24.9528 16.4512 24.8664 16.6686 24.8664H19.1279C19.3453 24.8664 19.5538 24.9528 19.7076 25.1066C19.8613 25.2603 19.9477 25.4688 19.9477 25.6862C19.9477 25.9036 19.8613 26.1121 19.7076 26.2659C19.5538 26.4196 19.3453 26.506 19.1279 26.506ZM31.4244 26.506H28.9651C28.7477 26.506 28.5392 26.4196 28.3855 26.2659C28.2317 26.1121 28.1453 25.9036 28.1453 25.6862C28.1453 25.4688 28.2317 25.2603 28.3855 25.1066C28.5392 24.9528 28.7477 24.8664 28.9651 24.8664H31.4244C31.6418 24.8664 31.8503 24.9528 32.0041 25.1066C32.1578 25.2603 32.2442 25.4688 32.2442 25.6862C32.2442 25.9036 32.1578 26.1121 32.0041 26.2659C31.8503 26.4196 31.6418 26.506 31.4244 26.506ZM15.4707 21.5874L18.0212 15.849H30.0718L32.6223 21.5874H15.4707Z" fill="#007B8A"/>
</svg>
