<svg width="43" height="43" viewBox="0 0 43 43" fill="none" xmlns="http://www.w3.org/2000/svg">
<circle cx="21.5" cy="21.5" r="21.5" fill="#007B8A"/>
<path d="M32.5 19.75H31.4875L28.8831 13.8906C28.7653 13.6255 28.5731 13.4003 28.3298 13.2422C28.0865 13.0841 27.8026 13 27.5125 13H16.4875C16.1974 13 15.9135 13.0841 15.6702 13.2422C15.4269 13.4003 15.2347 13.6255 15.1169 13.8906L12.5125 19.75H11.5C11.3011 19.75 11.1103 19.829 10.9697 19.9697C10.829 20.1103 10.75 20.3011 10.75 20.5C10.75 20.6989 10.829 20.8897 10.9697 21.0303C11.1103 21.171 11.3011 21.25 11.5 21.25H12.25V28.75C12.25 29.1478 12.408 29.5294 12.6893 29.8107C12.9706 30.092 13.3522 30.25 13.75 30.25H16C16.3978 30.25 16.7794 30.092 17.0607 29.8107C17.342 29.5294 17.5 29.1478 17.5 28.75V28H26.5V28.75C26.5 29.1478 26.658 29.5294 26.9393 29.8107C27.2206 30.092 27.6022 30.25 28 30.25H30.25C30.6478 30.25 31.0294 30.092 31.3107 29.8107C31.592 29.5294 31.75 29.1478 31.75 28.75V21.25H32.5C32.6989 21.25 32.8897 21.171 33.0303 21.0303C33.171 20.8897 33.25 20.6989 33.25 20.5C33.25 20.3011 33.171 20.1103 33.0303 19.9697C32.8897 19.829 32.6989 19.75 32.5 19.75ZM17.5 24.25H15.25C15.0511 24.25 14.8603 24.171 14.7197 24.0303C14.579 23.8897 14.5 23.6989 14.5 23.5C14.5 23.3011 14.579 23.1103 14.7197 22.9697C14.8603 22.829 15.0511 22.75 15.25 22.75H17.5C17.6989 22.75 17.8897 22.829 18.0303 22.9697C18.171 23.1103 18.25 23.3011 18.25 23.5C18.25 23.6989 18.171 23.8897 18.0303 24.0303C17.8897 24.171 17.6989 24.25 17.5 24.25ZM28.75 24.25H26.5C26.3011 24.25 26.1103 24.171 25.9697 24.0303C25.829 23.8897 25.75 23.6989 25.75 23.5C25.75 23.3011 25.829 23.1103 25.9697 22.9697C26.1103 22.829 26.3011 22.75 26.5 22.75H28.75C28.9489 22.75 29.1397 22.829 29.2803 22.9697C29.421 23.1103 29.5 23.3011 29.5 23.5C29.5 23.6989 29.421 23.8897 29.2803 24.0303C29.1397 24.171 28.9489 24.25 28.75 24.25ZM14.1541 19.75L16.4875 14.5H27.5125L29.8459 19.75H14.1541Z" fill="white"/>
</svg>
