<svg width="549" height="308" viewBox="0 0 549 308" fill="none" xmlns="http://www.w3.org/2000/svg">
<g clip-path="url(#clip0_45_732)">
<path d="M157.955 285.409C158.147 292.592 159.348 299.712 161.523 306.56C161.571 306.718 161.624 306.875 161.676 307.034H174.989C174.975 306.891 174.961 306.732 174.947 306.56C174.059 296.335 179.13 234.848 185.249 224.206C184.713 225.07 156.923 252.921 157.955 285.409Z" fill="#E6E6E6"/>
<path d="M158.954 306.56C159.065 306.719 159.181 306.877 159.299 307.034H169.287C169.211 306.899 169.124 306.74 169.022 306.56C167.372 303.576 162.489 294.656 157.956 285.409C153.086 275.471 148.615 265.157 148.992 261.424C148.875 262.266 145.504 287.932 158.954 306.56Z" fill="#E6E6E6"/>
<path d="M310.84 296.047C310.938 299.697 311.548 303.314 312.653 306.793C312.677 306.874 312.704 306.953 312.731 307.034H319.495C319.488 306.962 319.48 306.881 319.473 306.793C319.022 301.598 321.599 270.359 324.707 264.953C324.435 265.391 310.316 279.541 310.84 296.047Z" fill="#E6E6E6"/>
<path d="M311.348 306.793C311.404 306.874 311.463 306.954 311.523 307.034H316.598C316.559 306.965 316.515 306.884 316.463 306.793C315.625 305.277 313.144 300.745 310.841 296.047C308.367 290.998 306.095 285.758 306.286 283.861C306.227 284.289 304.515 297.329 311.348 306.793Z" fill="#E6E6E6"/>
<path d="M270.797 87.9924L253.581 100.262L264.293 101.412L279.215 88.7605L270.797 87.9924Z" fill="#3F3D56"/>
<path d="M203.439 297.489L213.794 297.488L218.721 257.47L203.438 257.47L203.439 297.489Z" fill="#9F616A"/>
<path d="M200.798 294.102L221.191 294.101H221.192C224.638 294.101 227.944 295.473 230.381 297.915C232.818 300.357 234.187 303.668 234.188 307.122V307.545L200.798 307.546L200.798 294.102Z" fill="#2F2E41"/>
<path d="M196.929 154.552C196.929 154.552 192.441 159.635 199.872 179.448L198.563 288.089L222.646 287.618L227.939 234.624L237.577 157.291L196.929 154.552Z" fill="#2F2E41"/>
<path d="M172.885 137.402C171.463 137.398 170.097 136.839 169.079 135.843C168.061 134.847 167.471 133.493 167.433 132.068L166.303 89.3955L185.64 52.6383C186.079 51.8105 186.722 51.1087 187.507 50.5989C188.292 50.0892 189.194 49.7886 190.127 49.7253L204.864 48.7773L203.592 134.793L173.365 137.381C173.204 137.395 173.045 137.402 172.885 137.402Z" fill="#007B8A"/>
<path d="M245.836 169.572L245.573 169.532C214.765 164.824 191.517 160.311 191.286 160.266L190.997 160.21L199.073 140.529C199.009 138.473 197.261 80.7227 200.608 64.1305C203.847 48.0683 219.118 45.4361 220.858 45.1884L222.606 39.3877L244.681 50.8969L248.531 64.1732L249.313 100.56L245.836 169.572Z" fill="#3F3D56"/>
<path d="M215.5 114.485C201.277 114.485 189.706 98.9908 189.706 79.9461C189.706 60.9014 201.277 45.4075 215.5 45.4075C229.722 45.4075 241.293 60.9014 241.293 79.9461C241.293 98.9908 229.722 114.485 215.5 114.485ZM215.5 48.7889C203.138 48.7889 193.081 62.766 193.081 79.9461C193.081 97.1263 203.138 111.103 215.5 111.103C227.861 111.103 237.918 97.1263 237.918 79.9461C237.918 62.766 227.861 48.7889 215.5 48.7889Z" fill="#007B8A"/>
<path d="M259.132 94.6794C258.138 94.6792 257.155 94.8851 256.244 95.2842C255.333 95.6833 254.514 96.267 253.84 96.9985H216.735L203.144 99.8971L205.375 117.142L253.723 106.724C254.524 107.629 255.538 108.32 256.673 108.732C257.808 109.144 259.029 109.264 260.222 109.083C261.416 108.901 262.545 108.422 263.507 107.69C264.468 106.959 265.232 105.997 265.727 104.894C266.223 103.791 266.435 102.581 266.343 101.374C266.252 100.168 265.86 99.0039 265.205 97.9881C264.549 96.9724 263.649 96.1374 262.589 95.5594C261.528 94.9814 260.339 94.6789 259.132 94.6794Z" fill="#9F616A"/>
<path d="M256.408 36.9441C263.391 29.947 263.391 18.6025 256.408 11.6055C249.424 4.6084 238.101 4.6084 231.118 11.6055C224.134 18.6025 224.134 29.947 231.118 36.9441C238.101 43.9412 249.424 43.9412 256.408 36.9441Z" fill="#9F616A"/>
<path d="M226.944 9.95094L226.077 8.2027L230.439 6.03116C230.439 6.03116 235.252 -1.81396 243.959 0.390689C252.667 2.59534 256.585 3.91478 256.585 3.91478L260.936 6.10838L258.752 8.28542L262.67 9.6049L260.053 10.9078L263.098 12.6616L261.459 21.652C261.459 21.652 258.736 14.8331 253.501 17.4389C248.267 20.0447 238.692 16.0919 238.692 16.0919L230.373 32.2219C230.373 32.2219 228.657 26.5675 225.598 28.0752C225.598 28.0752 217.781 15.6024 226.944 9.95094Z" fill="#2F2E41"/>
<path d="M382.327 120.256L381.562 105.893L373.848 99.6136L369.379 112.914L344.385 146.314C343.203 146.504 342.1 147.029 341.207 147.827C340.314 148.625 339.667 149.662 339.344 150.817C339.021 151.971 339.035 153.195 339.384 154.342C339.732 155.489 340.402 156.511 341.313 157.289C342.224 158.067 343.338 158.567 344.524 158.73C345.709 158.893 346.917 158.712 348.003 158.21C349.09 157.707 350.01 156.902 350.654 155.892C351.299 154.882 351.641 153.708 351.64 152.509C351.64 152.424 351.631 152.342 351.628 152.258L382.327 120.256Z" fill="#FFB7B7"/>
<path d="M397.181 301.277L391.27 301.277L388.458 278.434L397.182 278.434L397.181 301.277Z" fill="#FFB7B7"/>
<path d="M398.688 307.017L379.63 307.017V306.775C379.63 304.804 380.411 302.914 381.803 301.52C383.194 300.126 385.08 299.343 387.048 299.343L398.689 299.343L398.688 307.017Z" fill="#2F2E41"/>
<path d="M424.662 301.277L418.751 301.277L415.939 278.434L424.663 278.434L424.662 301.277Z" fill="#FFB7B7"/>
<path d="M426.169 307.017L407.111 307.017V306.775C407.111 304.804 407.892 302.914 409.283 301.52C410.675 300.126 412.561 299.343 414.529 299.343L426.17 299.343L426.169 307.017Z" fill="#2F2E41"/>
<path d="M418.415 60.2548C420.917 49.9022 423.037 38.2256 418.318 28.6908C415.043 22.075 402.929 19.8471 395.985 22.2305C389.041 24.6139 384.02 31.0803 381.812 38.1306C379.604 45.1809 379.861 52.7782 380.823 60.1075C393.594 59.8617 406.366 59.6159 418.415 60.2548Z" fill="#2F2E41"/>
<path d="M404.006 58.4235C411.223 54.4706 413.875 45.4043 409.93 38.1732C405.985 30.9421 396.936 28.2846 389.719 32.2375C382.502 36.1903 379.85 45.2567 383.795 52.4878C387.74 59.7189 396.789 62.3764 404.006 58.4235Z" fill="#FFB8B8"/>
<path d="M415.069 42.2567C415.116 39.7453 414.659 37.25 413.725 34.9191C412.791 32.5881 411.399 30.4691 409.631 28.6879C407.863 26.9067 405.756 25.4997 403.435 24.5505C401.114 23.6013 398.626 23.1292 396.12 23.1623C393.613 23.1954 391.138 23.733 388.843 24.7432C386.548 25.7534 384.479 27.2156 382.759 29.0429C381.038 30.8701 379.702 33.0252 378.83 35.38C377.957 37.7348 377.566 40.2413 377.68 42.7505C390.427 42.7776 403.174 42.8047 415.069 42.2567Z" fill="#2F2E41"/>
<path d="M372.947 135.23C372.947 135.23 370.524 170.498 371.839 181.257C373.154 192.016 387.474 286.072 387.474 286.072L398.276 286.053L401.483 175.213L414.256 287.13L425.427 285.967L431.764 176.491C431.764 176.491 430.77 135.505 422.693 131.396L372.947 135.23Z" fill="#2F2E41"/>
<path d="M389.891 170.191C381.957 170.188 374.138 168.291 367.081 164.656L366.927 164.577L372.897 124.884L372.51 77.5759C372.499 76.2774 372.747 74.9899 373.238 73.7883C373.73 72.5867 374.455 71.4952 375.372 70.5775C376.289 69.6598 377.379 68.9342 378.579 68.4431C379.778 67.952 381.064 67.7052 382.36 67.7171L414.397 68.0117C415.816 68.0247 417.216 68.3301 418.512 68.9088C419.807 69.4874 420.97 70.3271 421.928 71.3754C422.886 72.4237 423.618 73.6583 424.079 75.0024C424.541 76.3465 424.721 77.7712 424.609 79.1881L421.611 117.113L431.525 147.895L429.802 150.191C425.156 156.4 419.131 161.44 412.203 164.912C405.276 168.383 397.636 170.191 389.891 170.191Z" fill="#3F3D56"/>
<path d="M369.291 108.53L372.648 74.2079L373.727 72.6695C374.466 71.616 375.406 70.719 376.492 70.0302C377.578 69.3413 378.789 68.8742 380.055 68.6555C381.322 68.4369 382.619 68.471 383.873 68.756C385.126 69.041 386.311 69.5713 387.359 70.3163L388.284 70.9736L387.371 105.756L369.291 108.53Z" fill="#3F3D56"/>
<path d="M506.853 276.215C515.531 273.813 519.235 287.018 510.578 289.497C501.9 291.899 498.196 278.694 506.853 276.215Z" fill="#3F3D56"/>
<path d="M458.733 293.211C467.412 290.809 471.115 304.014 462.458 306.492C453.78 308.894 450.076 295.69 458.733 293.211Z" fill="#3F3D56"/>
<path d="M439.258 153.942L439.393 153.904L461.747 214.712L464.694 213.882L442.18 152.638C442.131 151.694 441.761 150.795 441.132 150.09C440.503 149.386 439.653 148.918 438.722 148.765C427.543 146.993 423.011 156.937 423.011 156.937L423.056 157.003L445.911 219.172L448.858 218.342L426.676 158.002C433.429 151.31 439.258 153.942 439.258 153.942Z" fill="#3F3D56"/>
<path d="M464.879 296.632C461.689 296.604 458.592 295.557 456.038 293.642C453.484 291.728 451.606 289.046 450.679 285.988C446.413 271.997 436.346 238.472 435.013 229.374C433.276 217.529 443.062 214.16 443.28 214.088C443.543 213.999 447.478 212.896 452.923 211.369C462.179 208.773 476.167 204.851 476.682 204.619C478.849 203.864 481.149 203.566 483.437 203.743C485.725 203.92 487.951 204.568 489.977 205.648C492.065 206.748 493.908 208.263 495.394 210.099C496.88 211.936 497.977 214.056 498.62 216.33L513.018 267.657C513.907 270.803 513.658 274.163 512.315 277.143C510.972 280.124 508.622 282.533 505.679 283.947C494.569 289.295 478.274 296.429 465.098 296.63C465.025 296.631 464.951 296.632 464.879 296.632Z" fill="#007B8A"/>
<path d="M436.881 151.838L429.643 109.475L428.835 95.1781L417.133 99.0185L427.003 154.49C426.604 155.57 426.51 156.738 426.73 157.868C426.949 158.998 427.475 160.045 428.249 160.896C429.023 161.746 430.015 162.367 431.118 162.691C432.22 163.014 433.39 163.028 434.5 162.73C435.609 162.432 436.616 161.834 437.409 161.002C438.203 160.169 438.752 159.134 438.998 158.01C439.244 156.886 439.176 155.715 438.803 154.627C438.43 153.538 437.765 152.574 436.881 151.838Z" fill="#FFB7B7"/>
<path d="M431.623 106.818L413.358 105.823L409.067 71.2945L409.485 70.9315C410.513 70.0377 411.708 69.3562 413 68.9261C414.292 68.4961 415.656 68.3259 417.014 68.4254C418.372 68.525 419.696 68.8922 420.912 69.506C422.128 70.1199 423.211 70.9683 424.099 72.0026L424.943 72.9871L424.956 73.0494L431.623 106.818Z" fill="#3F3D56"/>
<path d="M505.999 275.48L487.331 212.174L443.434 224.604L443.172 223.674L487.986 210.985L488.121 211.443L506.924 275.206L505.999 275.48Z" fill="#3F3D56"/>
<path d="M174.279 132.863L172.291 89.4357L192.652 49.5574L193.51 49.9974L173.266 89.6473L175.242 132.819L174.279 132.863Z" fill="#3F3D56"/>
<path d="M707.437 308H130.19C130.024 308 129.865 307.95 129.747 307.861C129.63 307.772 129.564 307.652 129.564 307.526C129.564 307.4 129.63 307.28 129.747 307.191C129.865 307.102 130.024 307.052 130.19 307.052H707.437C707.603 307.052 707.763 307.102 707.88 307.191C707.998 307.28 708.064 307.4 708.064 307.526C708.064 307.652 707.998 307.772 707.88 307.861C707.763 307.95 707.603 308 707.437 308Z" fill="#CCCCCC"/>
<path d="M205.613 120.374L201.37 107.728L200.343 65.572L202.151 59.5909C202.802 57.4382 203.88 55.4392 205.32 53.7139C206.76 51.9885 208.533 50.5722 210.533 49.5499C212.533 48.5276 214.718 47.9203 216.958 47.7644C219.197 47.6085 221.445 47.9072 223.567 48.6427C225.688 49.3781 227.64 50.5351 229.304 52.0443C230.969 53.5536 232.312 55.384 233.254 57.4259C234.195 59.4678 234.716 61.6791 234.784 63.9274C234.852 66.1756 234.467 68.4145 233.651 70.5099L223.96 95.3903L224.453 96.3481L245.447 96.1778L252.905 109.628L205.613 120.374Z" fill="#3F3D56"/>
<path d="M339.356 210.368L339.342 210.371L316.072 215.038L296.055 223.115C295.796 223.22 295.519 223.272 295.24 223.269C294.961 223.267 294.686 223.209 294.429 223.099C294.172 222.99 293.94 222.831 293.744 222.631C293.549 222.431 293.395 222.195 293.291 221.936C293.266 221.875 293.244 221.813 293.226 221.75L278.602 172.689C278.449 172.181 278.491 171.634 278.721 171.155C278.951 170.677 279.352 170.302 279.844 170.106L300.228 161.881L300.243 161.878L323.512 157.211L343.529 149.134C344.052 148.923 344.637 148.929 345.155 149.15C345.674 149.371 346.083 149.79 346.294 150.313C346.318 150.374 346.34 150.436 346.358 150.499L360.982 199.56C361.135 200.068 361.093 200.616 360.863 201.094C360.633 201.573 360.232 201.947 359.74 202.143L339.356 210.368Z" fill="#E5E5E5"/>
<path d="M314.387 177.414C309.051 175.527 303.535 173.874 297.995 172.501L297.717 172.432L300.53 181.869L314.86 177.581L314.387 177.414ZM300.75 181.462L298.194 172.889C303.467 174.204 308.715 175.773 313.804 177.555L300.75 181.462ZM342.348 190.17C339.864 188.763 337.344 187.415 334.789 186.127C334.085 185.772 333.378 185.421 332.669 185.076C328.342 182.967 323.949 181.044 319.489 179.308L319.437 179.287L301.372 184.693L306.305 201.245L342.682 190.36L342.348 190.17ZM306.525 200.837L301.778 184.913L319.424 179.633C323.724 181.309 327.975 183.165 332.177 185.201C332.906 185.554 333.633 185.913 334.357 186.277C336.888 187.546 339.386 188.876 341.852 190.266L306.525 200.837ZM342.348 190.17C339.864 188.763 337.344 187.415 334.789 186.127C334.085 185.772 333.378 185.421 332.669 185.076C328.342 182.967 323.949 181.044 319.489 179.308L319.437 179.287L301.372 184.693L306.305 201.245L342.682 190.36L342.348 190.17ZM306.525 200.837L301.778 184.913L319.424 179.633C323.724 181.309 327.975 183.165 332.177 185.201C332.906 185.554 333.633 185.913 334.357 186.277C336.888 187.546 339.386 188.876 341.852 190.266L306.525 200.837ZM314.387 177.414C309.051 175.527 303.535 173.874 297.995 172.501L297.717 172.432L300.53 181.869L314.86 177.581L314.387 177.414ZM300.75 181.462L298.194 172.889C303.467 174.204 308.715 175.773 313.804 177.555L300.75 181.462ZM314.387 177.414C309.051 175.527 303.535 173.874 297.995 172.501L297.717 172.432L300.53 181.869L314.86 177.581L314.387 177.414ZM300.75 181.462L298.194 172.889C303.467 174.204 308.715 175.773 313.804 177.555L300.75 181.462ZM342.348 190.17C339.864 188.763 337.344 187.415 334.789 186.127C334.085 185.772 333.378 185.421 332.669 185.076C328.342 182.967 323.949 181.044 319.489 179.308L319.437 179.287L301.372 184.693L306.305 201.245L342.682 190.36L342.348 190.17ZM306.525 200.837L301.778 184.913L319.424 179.633C323.724 181.309 327.975 183.165 332.177 185.201C332.906 185.554 333.633 185.913 334.357 186.277C336.888 187.546 339.386 188.876 341.852 190.266L306.525 200.837ZM291.647 208.707L291.74 209.02L304.109 205.319L305.465 209.869L293.096 213.57L293.19 213.884L305.871 210.089L304.328 204.912L291.647 208.707ZM309.532 212.07L310.479 215.249L310.784 215.126L309.938 212.29L358.166 197.859L358.072 197.545L309.532 212.07ZM355.781 189.858L355.688 189.544L307.147 204.069L308.69 209.246L357.231 194.721L357.137 194.407L308.91 208.838L307.553 204.289L355.781 189.858ZM319.731 175.782C312.339 172.936 304.746 170.646 297.014 168.93L296.067 165.753L295.763 165.876L296.717 169.078L297.037 169.271C304.739 170.985 312.303 173.27 319.666 176.107L319.718 176.127L349.071 167.345L348.977 167.031L319.731 175.782ZM297.305 182.492L284.936 186.193L285.03 186.507L297.711 182.712L293.022 166.981L292.718 167.104L297.305 182.492ZM349.912 170.168L324.108 177.89L324.528 178.066C328.486 179.735 332.434 181.58 336.371 183.6C336.93 183.887 337.49 184.178 338.048 184.473C340.827 185.935 343.585 187.479 346.321 189.104L346.625 189.18L354.846 186.72L354.752 186.406L346.551 188.86C343.844 187.251 341.112 185.719 338.354 184.264C337.803 183.973 337.251 183.685 336.698 183.401C332.844 181.417 328.969 179.598 325.074 177.942L350.006 170.482L349.912 170.168ZM294.032 216.708L294.125 217.022L306.494 213.321L307.434 216.477L307.739 216.354L306.713 212.913L294.032 216.708ZM285.871 189.331L285.965 189.645L298.333 185.944L303.08 201.868L290.711 205.569L290.805 205.883L303.487 202.088L298.553 185.536L285.871 189.331ZM314.387 177.414C309.051 175.527 303.535 173.874 297.995 172.501L297.717 172.432L300.53 181.869L314.86 177.581L314.387 177.414ZM300.75 181.462L298.194 172.889C303.467 174.204 308.715 175.773 313.804 177.555L300.75 181.462ZM342.348 190.17C339.864 188.763 337.344 187.415 334.789 186.127C334.085 185.772 333.378 185.421 332.669 185.076C328.342 182.967 323.949 181.044 319.489 179.308L319.437 179.287L301.372 184.693L306.305 201.245L342.682 190.36L342.348 190.17ZM306.525 200.837L301.778 184.913L319.424 179.633C323.724 181.309 327.975 183.165 332.177 185.201C332.906 185.554 333.633 185.913 334.357 186.277C336.888 187.546 339.386 188.876 341.852 190.266L306.525 200.837ZM314.387 177.414C309.051 175.527 303.535 173.874 297.995 172.501L297.717 172.432L300.53 181.869L314.86 177.581L314.387 177.414ZM300.75 181.462L298.194 172.889C303.467 174.204 308.715 175.773 313.804 177.555L300.75 181.462ZM342.348 190.17C339.864 188.763 337.344 187.415 334.789 186.127C334.085 185.772 333.378 185.421 332.669 185.076C328.342 182.967 323.949 181.044 319.489 179.308L319.437 179.287L301.372 184.693L306.305 201.245L342.682 190.36L342.348 190.17ZM306.525 200.837L301.778 184.913L319.424 179.633C323.724 181.309 327.975 183.165 332.177 185.201C332.906 185.554 333.633 185.913 334.357 186.277C336.888 187.546 339.386 188.876 341.852 190.266L306.525 200.837Z" fill="white"/>
<path d="M318.541 178.891C319.726 182.865 315.184 193.865 315.184 193.865C315.184 193.865 305.365 187.162 304.181 183.188C303.612 181.28 303.823 179.224 304.767 177.472C305.712 175.72 307.312 174.415 309.217 173.846C311.121 173.276 313.173 173.487 314.922 174.434C316.671 175.38 317.973 176.983 318.541 178.891Z" fill="#007B8A"/>
<path d="M314.55 179.745C314.744 180.395 314.741 181.089 314.542 181.738C314.342 182.386 313.955 182.961 313.43 183.39C312.904 183.818 312.264 184.081 311.589 184.144C310.914 184.208 310.236 184.07 309.64 183.747C309.044 183.425 308.557 182.932 308.24 182.332C307.923 181.732 307.791 181.051 307.86 180.376C307.929 179.701 308.197 179.061 308.629 178.538C309.061 178.015 309.638 177.632 310.288 177.438C310.719 177.309 311.171 177.266 311.619 177.312C312.066 177.358 312.5 177.492 312.896 177.706C313.292 177.921 313.642 178.211 313.926 178.561C314.21 178.91 314.422 179.313 314.55 179.745Z" fill="white"/>
<path d="M316.153 199.142C317.269 199.142 318.173 198.236 318.173 197.118C318.173 196 317.269 195.094 316.153 195.094C315.038 195.094 314.133 196 314.133 197.118C314.133 198.236 315.038 199.142 316.153 199.142Z" fill="#007B8A"/>
<path d="M338.195 170.506L324.156 174.707C324.139 174.712 324.121 174.716 324.103 174.718L327.308 161.208C327.327 161.124 327.368 161.047 327.427 160.984C327.485 160.921 327.56 160.875 327.642 160.851C327.724 160.826 327.812 160.824 327.895 160.844C327.979 160.864 328.055 160.906 328.117 160.966L334.878 167.366L335.202 167.672L338.195 170.506Z" fill="white"/>
<path opacity="0.2" d="M338.195 170.506L333.402 171.94L334.735 167.812L334.83 167.514L334.878 167.366L335.202 167.672L338.195 170.506Z" fill="black"/>
<path d="M346.012 168.167L333.87 171.8L335.202 167.672L335.298 167.374L337.034 161.994C337.068 161.91 337.119 161.834 337.184 161.77C337.249 161.707 337.327 161.658 337.413 161.627C337.498 161.596 337.589 161.583 337.679 161.589C337.77 161.596 337.858 161.621 337.938 161.664C337.959 161.676 337.98 161.69 337.999 161.706L346.012 168.167Z" fill="white"/>
</g>
<path d="M145.811 248.797C153.175 248.797 159.146 242.826 159.146 235.461C159.146 228.097 153.175 222.126 145.811 222.126C138.446 222.126 132.475 228.097 132.475 235.461C132.475 242.826 138.446 248.797 145.811 248.797Z" fill="#007B8A"/>
<path d="M145.811 238.971C147.749 238.971 149.32 237.4 149.32 235.462C149.32 233.523 147.749 231.952 145.811 231.952C143.872 231.952 142.301 233.523 142.301 235.462C142.301 237.4 143.872 238.971 145.811 238.971Z" fill="#E6E6E6"/>
<path d="M145.169 235.537C146.647 236.743 147.098 238.643 146.823 240.479C146.485 242.492 145.441 244.318 143.877 245.63C142.119 247.193 139.975 248.249 137.906 249.33C136.005 250.3 134.178 251.409 132.44 252.648C125.787 257.484 120.76 264.37 117.883 272.054C115.011 279.725 114.24 288.432 116.423 296.383C117.502 300.317 119.687 304.561 123.756 306.041C127 307.221 131.429 306.461 133.081 303.117C134.855 299.526 132.379 295.489 129.191 293.706C125.058 291.395 120.12 293.084 116.403 295.423C112.31 297.999 109.02 301.695 104.746 304.003C102.823 305.075 100.683 305.699 98.4846 305.83C96.4661 305.909 94.4512 305.598 92.5508 304.913C88.6078 303.476 85.2133 300.841 82.8436 297.378C80.1294 293.433 78.9145 288.596 78.6929 283.858C78.1972 273.258 82.3846 263.341 85.7443 253.511C87.55 248.392 88.9027 243.124 89.7867 237.769C90.6274 232.386 90.9267 226.932 90.68 221.49C90.4576 216.677 89.9828 211.645 87.8588 207.249C85.9911 203.385 82.5777 200.221 78.2622 199.424C76.3169 199.042 74.3011 199.274 72.4931 200.087C71.8775 200.367 72.412 201.275 73.0245 200.996C76.8436 199.253 81.3575 200.949 84.1783 203.762C87.4723 207.046 88.6819 211.897 89.2191 216.373C90.426 226.981 89.4749 237.724 86.4228 247.954C83.4937 257.904 78.8863 267.438 77.8231 277.863C77.338 282.619 77.5872 287.537 79.1076 292.098C80.412 296.161 82.858 299.763 86.1536 302.473C89.2566 304.982 93.0739 306.691 97.0924 306.881C101.603 307.095 105.559 305.084 109.059 302.409C112.807 299.544 116.256 296.008 120.796 294.402C122.866 293.669 125.224 293.328 127.349 294.033C129.173 294.656 130.719 295.899 131.719 297.546C132.642 299.081 132.983 301 132.14 302.649C131.348 304.199 129.803 305.096 128.129 305.403C126.357 305.716 124.531 305.406 122.962 304.525C121.129 303.478 119.787 301.721 118.848 299.864C116.973 296.162 116.344 291.755 116.248 287.646C116.165 283.632 116.679 279.628 117.774 275.766C119.954 267.953 124.353 260.94 130.439 255.578C131.972 254.242 133.612 253.034 135.343 251.967C137.231 250.803 139.246 249.873 141.171 248.775C143.065 247.695 144.931 246.404 146.235 244.626C147.347 243.102 147.947 241.266 147.95 239.38C147.97 238.512 147.798 237.651 147.446 236.858C147.094 236.065 146.57 235.359 145.914 234.792C145.393 234.367 144.644 235.108 145.169 235.537Z" fill="#CCCCCC"/>
<path d="M20.6767 296.874C25.3396 299.888 30.7335 301.579 36.2825 301.766C36.1835 302.001 36.0722 302.23 35.9491 302.454C35.3032 303.646 34.3904 304.673 33.282 305.454C31.9696 306.378 30.4288 306.923 28.8277 307.031C27.2265 307.139 25.6265 306.805 24.2021 306.066C22.7778 305.326 21.5838 304.21 20.7505 302.838C19.9172 301.467 19.4765 299.893 19.4766 298.288V296.874H20.6767Z" fill="#3F3D56"/>
<path d="M53.4076 297.288V298.288C53.4083 300.235 52.7603 302.127 51.5658 303.665C50.3714 305.203 48.6986 306.299 46.8119 306.78C44.9251 307.26 42.9318 307.099 41.147 306.321C39.3622 305.542 37.8876 304.192 36.9561 302.482C36.8277 302.253 36.7117 302.018 36.6086 301.776C36.8648 301.783 37.1176 301.787 37.3737 301.787C43.0308 301.794 48.5797 300.237 53.4076 297.288Z" fill="#3F3D56"/>
<path d="M65.2131 191.526C64.9499 191.487 64.6831 191.462 64.4165 191.445C67.4471 198.429 67.6571 206.316 65.0025 213.451C65.2693 213.42 65.5325 213.378 65.7957 213.329C68.3657 212.831 70.6756 211.437 72.3142 209.395C73.9528 207.354 74.8138 204.797 74.7438 202.18C74.6739 199.563 73.6776 197.056 71.9323 195.105C70.1871 193.154 67.806 191.886 65.2131 191.526Z" fill="#007B8A"/>
<path d="M10.3313 191.445C10.0647 191.462 9.79788 191.487 9.53469 191.526C6.94177 191.886 4.56073 193.154 2.81544 195.105C1.07015 197.056 0.0738714 199.563 0.00394737 202.18C-0.0659766 204.797 0.795004 207.354 2.4336 209.395C4.0722 211.437 6.3821 212.831 8.95209 213.329C9.21529 213.378 9.47848 213.42 9.74528 213.451C7.09067 206.316 7.30067 198.429 10.3313 191.445Z" fill="#007B8A"/>
<path d="M65.213 191.525C62.322 184.619 56.967 179.034 50.1883 175.855C43.4097 172.676 35.6914 172.131 28.533 174.324C21.3745 176.518 15.2871 181.294 11.4532 187.725C7.61936 194.156 6.31287 201.783 7.78756 209.123C9.26224 216.463 13.4128 222.993 19.4329 227.445C25.453 231.896 32.9128 233.95 40.363 233.209C47.8132 232.468 54.7218 228.984 59.7468 223.433C64.7718 217.883 67.5543 210.663 67.5537 203.176C67.5522 199.176 66.7566 195.216 65.213 191.525ZM65.0024 213.451C62.4353 220.352 57.3783 226.042 50.8266 229.401C44.275 232.76 36.7032 233.545 29.6017 231.602C22.5002 229.659 16.3832 225.128 12.4548 218.9C8.52644 212.673 7.07114 205.202 8.37536 197.955C9.67957 190.709 13.6488 184.214 19.5019 179.747C25.355 175.281 32.6679 173.167 40.0014 173.821C47.3348 174.476 54.1576 177.852 59.1269 183.285C64.0961 188.718 66.8519 195.814 66.8518 203.176C66.8507 206.684 66.2244 210.163 65.0024 213.451Z" fill="#3F3D56"/>
<path d="M52.8146 196.333H21.933C20.3042 196.333 18.7422 196.98 17.5905 198.132C16.4388 199.284 15.7917 200.846 15.7917 202.474C15.7917 204.103 16.4388 205.665 17.5905 206.817C18.7422 207.969 20.3042 208.616 21.933 208.616H52.8146C54.4434 208.616 56.0054 207.969 57.1571 206.817C58.3088 205.665 58.9559 204.103 58.9559 202.474C58.9559 200.846 58.3088 199.284 57.1571 198.132C56.0054 196.98 54.4434 196.333 52.8146 196.333Z" fill="#3F3D56"/>
<path d="M37.3739 239.322C29.1236 239.326 21.2023 242.558 15.3044 248.327C9.40644 254.096 6.00011 261.943 5.81396 270.192C5.62781 278.44 8.67664 286.433 14.3083 292.462C19.94 298.492 27.7074 302.078 35.9491 302.454C36.2825 302.471 36.6194 302.482 36.9563 302.482C37.0966 302.489 37.2335 302.489 37.3739 302.489C45.7503 302.489 53.7837 299.161 59.7068 293.238C65.6298 287.315 68.9574 279.282 68.9574 270.905C68.9574 262.529 65.6298 254.495 59.7068 248.572C53.7837 242.649 45.7503 239.322 37.3739 239.322ZM53.4077 297.288C48.5798 300.237 43.031 301.793 37.3739 301.787C37.1177 301.787 36.865 301.783 36.6088 301.776C36.5 301.776 36.3912 301.773 36.2825 301.766C28.8668 301.508 21.7915 298.59 16.3497 293.546C10.9079 288.502 7.46306 281.667 6.64478 274.292C5.82649 266.918 7.6894 259.494 11.8931 253.38C16.0967 247.265 22.3604 242.867 29.5392 240.99C36.718 239.113 44.3326 239.882 50.9913 243.157C57.6499 246.431 62.9079 251.992 65.8043 258.824C68.7007 265.655 69.042 273.301 66.7659 280.363C64.4897 287.426 59.7481 293.433 53.4077 297.288Z" fill="#3F3D56"/>
<path d="M59.5411 263.126H45.7379C44.7761 263.126 43.8538 262.744 43.1737 262.064C42.4936 261.384 42.1116 260.462 42.1116 259.5C42.1116 258.538 42.4936 257.616 43.1737 256.936C43.8538 256.256 44.7761 255.874 45.7379 255.874H59.5411C60.5029 255.874 61.4252 256.256 62.1053 256.936C62.7854 257.616 63.1674 258.538 63.1674 259.5C63.1674 260.462 62.7854 261.384 62.1053 262.064C61.4252 262.744 60.5029 263.126 59.5411 263.126Z" fill="#3F3D56"/>
<path d="M46.658 261.341C47.6745 261.341 48.4985 260.517 48.4985 259.5C48.4985 258.484 47.6745 257.66 46.658 257.66C45.6416 257.66 44.8176 258.484 44.8176 259.5C44.8176 260.517 45.6416 261.341 46.658 261.341Z" fill="#F2F2F2"/>
<path d="M52.6392 261.341C53.6557 261.341 54.4797 260.517 54.4797 259.5C54.4797 258.484 53.6557 257.66 52.6392 257.66C51.6228 257.66 50.7988 258.484 50.7988 259.5C50.7988 260.517 51.6228 261.341 52.6392 261.341Z" fill="#F2F2F2"/>
<path d="M58.6207 261.341C59.6371 261.341 60.4611 260.517 60.4611 259.5C60.4611 258.484 59.6371 257.66 58.6207 257.66C57.6043 257.66 56.7803 258.484 56.7803 259.5C56.7803 260.517 57.6043 261.341 58.6207 261.341Z" fill="#007B8A"/>
<defs>
<clipPath id="clip0_45_732">
<rect width="445" height="308" fill="white" transform="translate(104)"/>
</clipPath>
</defs>
</svg>
